<?xml version="1.0" encoding="UTF-8" standalone="no"?>
<!DOCTYPE svg PUBLIC "-//W3C//DTD SVG 1.1//EN"
 "http://www.w3.org/Graphics/SVG/1.1/DTD/svg11.dtd">
<!-- Generated by graphviz version 2.43.0 (0)
 -->
<!-- Title: %3 Pages: 1 -->
<svg width="754pt" height="260pt"
 viewBox="0.00 0.00 753.53 260.00" xmlns="http://www.w3.org/2000/svg" xmlns:xlink="http://www.w3.org/1999/xlink">
<g id="graph0" class="graph" transform="scale(1 1) rotate(0) translate(4 256)">
<title>%3</title>
<polygon fill="white" stroke="transparent" points="-4,4 -4,-256 749.53,-256 749.53,4 -4,4"/>
<!-- ORLY 1, 2, 3 1 -->
<g id="node1" class="node">
<title>ORLY 1, 2, 3 1</title>
<ellipse fill="none" stroke="black" cx="366.84" cy="-162" rx="77.19" ry="18"/>
<text text-anchor="middle" x="366.84" y="-158.3" font-family="Times,serif" font-size="14.00">ORLY 1, 2, 3 1</text>
</g>
<!-- ORLY 4 1 -->
<g id="node2" class="node">
<title>ORLY 4 1</title>
<ellipse fill="none" stroke="black" cx="141.84" cy="-90" rx="53.89" ry="18"/>
<text text-anchor="middle" x="141.84" y="-86.3" font-family="Times,serif" font-size="14.00">ORLY 4 1</text>
</g>
<!-- ORLY 1, 2, 3 1&#45;&gt;ORLY 4 1 -->
<g id="edge1" class="edge">
<title>ORLY 1, 2, 3 1&#45;&gt;ORLY 4 1</title>
<path fill="none" stroke="black" d="M319.11,-147.83C280.05,-136.2 225.32,-119.21 186.98,-106.84"/>
<polygon fill="black" stroke="black" points="187.71,-103.39 177.12,-103.64 185.55,-110.05 187.71,-103.39"/>
</g>
<!-- ORLY 1, 2, 3 Meta Station End -->
<g id="node3" class="node">
<title>ORLY 1, 2, 3 Meta Station End</title>
<ellipse fill="none" stroke="black" cx="366.84" cy="-90" rx="153.27" ry="18"/>
<text text-anchor="middle" x="366.84" y="-86.3" font-family="Times,serif" font-size="14.00">ORLY 1, 2, 3 Meta Station End</text>
</g>
<!-- ORLY 1, 2, 3 1&#45;&gt;ORLY 1, 2, 3 Meta Station End -->
<g id="edge2" class="edge">
<title>ORLY 1, 2, 3 1&#45;&gt;ORLY 1, 2, 3 Meta Station End</title>
<path fill="none" stroke="black" d="M366.84,-143.7C366.84,-135.98 366.84,-126.71 366.84,-118.11"/>
<polygon fill="black" stroke="black" points="370.34,-118.1 366.84,-108.1 363.34,-118.1 370.34,-118.1"/>
</g>
<!-- ANTONY 1 -->
<g id="node4" class="node">
<title>ANTONY 1</title>
<ellipse fill="none" stroke="black" cx="598.84" cy="-90" rx="60.39" ry="18"/>
<text text-anchor="middle" x="598.84" y="-86.3" font-family="Times,serif" font-size="14.00">ANTONY 1</text>
</g>
<!-- ORLY 1, 2, 3 1&#45;&gt;ANTONY 1 -->
<g id="edge3" class="edge">
<title>ORLY 1, 2, 3 1&#45;&gt;ANTONY 1</title>
<path fill="none" stroke="black" d="M408.51,-146.75C446.91,-134.69 503.95,-117.47 545.62,-105.37"/>
<polygon fill="black" stroke="black" points="546.7,-108.71 555.33,-102.57 544.75,-101.98 546.7,-108.71"/>
</g>
<!-- ORLY 4 1&#45;&gt;ORLY 1, 2, 3 1 -->
<g id="edge5" class="edge">
<title>ORLY 4 1&#45;&gt;ORLY 1, 2, 3 1</title>
<path fill="none" stroke="black" d="M182.23,-101.99C219.92,-113.12 276.11,-130.52 316.65,-143.54"/>
<polygon fill="black" stroke="black" points="315.74,-146.93 326.33,-146.67 317.89,-140.26 315.74,-146.93"/>
</g>
<!-- ORLY 4 Meta Station End -->
<g id="node6" class="node">
<title>ORLY 4 Meta Station End</title>
<ellipse fill="none" stroke="black" cx="141.84" cy="-18" rx="129.98" ry="18"/>
<text text-anchor="middle" x="141.84" y="-14.3" font-family="Times,serif" font-size="14.00">ORLY 4 Meta Station End</text>
</g>
<!-- ORLY 4 1&#45;&gt;ORLY 4 Meta Station End -->
<g id="edge6" class="edge">
<title>ORLY 4 1&#45;&gt;ORLY 4 Meta Station End</title>
<path fill="none" stroke="black" d="M141.84,-71.7C141.84,-63.98 141.84,-54.71 141.84,-46.11"/>
<polygon fill="black" stroke="black" points="145.34,-46.1 141.84,-36.1 138.34,-46.1 145.34,-46.1"/>
</g>
<!-- ANTONY 1&#45;&gt;ORLY 1, 2, 3 1 -->
<g id="edge10" class="edge">
<title>ANTONY 1&#45;&gt;ORLY 1, 2, 3 1</title>
<path fill="none" stroke="black" d="M560.7,-104.14C523.86,-115.76 467.71,-132.73 425.26,-145.11"/>
<polygon fill="black" stroke="black" points="424.23,-141.77 415.6,-147.92 426.18,-148.49 424.23,-141.77"/>
</g>
<!-- ANTONY Meta Station End -->
<g id="node9" class="node">
<title>ANTONY Meta Station End</title>
<ellipse fill="none" stroke="black" cx="598.84" cy="-18" rx="136.48" ry="18"/>
<text text-anchor="middle" x="598.84" y="-14.3" font-family="Times,serif" font-size="14.00">ANTONY Meta Station End</text>
</g>
<!-- ANTONY 1&#45;&gt;ANTONY Meta Station End -->
<g id="edge9" class="edge">
<title>ANTONY 1&#45;&gt;ANTONY Meta Station End</title>
<path fill="none" stroke="black" d="M598.84,-71.7C598.84,-63.98 598.84,-54.71 598.84,-46.11"/>
<polygon fill="black" stroke="black" points="602.34,-46.1 598.84,-36.1 595.34,-46.1 602.34,-46.1"/>
</g>
<!-- ORLY 1, 2, 3 Meta Station Start -->
<g id="node5" class="node">
<title>ORLY 1, 2, 3 Meta Station Start</title>
<ellipse fill="none" stroke="black" cx="366.84" cy="-234" rx="159.47" ry="18"/>
<text text-anchor="middle" x="366.84" y="-230.3" font-family="Times,serif" font-size="14.00">ORLY 1, 2, 3 Meta Station Start</text>
</g>
<!-- ORLY 1, 2, 3 Meta Station Start&#45;&gt;ORLY 1, 2, 3 1 -->
<g id="edge4" class="edge">
<title>ORLY 1, 2, 3 Meta Station Start&#45;&gt;ORLY 1, 2, 3 1</title>
<path fill="none" stroke="black" d="M366.84,-215.7C366.84,-207.98 366.84,-198.71 366.84,-190.11"/>
<polygon fill="black" stroke="black" points="370.34,-190.1 366.84,-180.1 363.34,-190.1 370.34,-190.1"/>
</g>
<!-- ORLY 4 Meta Station Start -->
<g id="node7" class="node">
<title>ORLY 4 Meta Station Start</title>
<ellipse fill="none" stroke="black" cx="135.84" cy="-162" rx="135.68" ry="18"/>
<text text-anchor="middle" x="135.84" y="-158.3" font-family="Times,serif" font-size="14.00">ORLY 4 Meta Station Start</text>
</g>
<!-- ORLY 4 Meta Station Start&#45;&gt;ORLY 4 1 -->
<g id="edge7" class="edge">
<title>ORLY 4 Meta Station Start&#45;&gt;ORLY 4 1</title>
<path fill="none" stroke="black" d="M137.32,-143.7C137.98,-135.98 138.78,-126.71 139.51,-118.11"/>
<polygon fill="black" stroke="black" points="143,-118.37 140.37,-108.1 136.03,-117.77 143,-118.37"/>
</g>
<!-- ANTONY Meta Station Start -->
<g id="node8" class="node">
<title>ANTONY Meta Station Start</title>
<ellipse fill="none" stroke="black" cx="603.84" cy="-162" rx="141.88" ry="18"/>
<text text-anchor="middle" x="603.84" y="-158.3" font-family="Times,serif" font-size="14.00">ANTONY Meta Station Start</text>
</g>
<!-- ANTONY Meta Station Start&#45;&gt;ANTONY 1 -->
<g id="edge8" class="edge">
<title>ANTONY Meta Station Start&#45;&gt;ANTONY 1</title>
<path fill="none" stroke="black" d="M602.6,-143.7C602.05,-135.98 601.39,-126.71 600.77,-118.11"/>
<polygon fill="black" stroke="black" points="604.26,-117.83 600.06,-108.1 597.28,-118.33 604.26,-117.83"/>
</g>
</g>
</svg>
